<?xml version="1.0" encoding="UTF-8" standalone="no"?>
<!-- Created with Inkscape (http://www.inkscape.org/) -->
<svg id="svg4724"
     xmlns:rdf="http://www.w3.org/1999/02/22-rdf-syntax-ns#"
     xmlns="http://www.w3.org/2000/svg"
     height="409"
     width="461"
     version="1.1"
     xmlns:cc="http://creativecommons.org/ns#"
     xmlns:dc="http://purl.org/dc/elements/1.1/">
    <path id="path5274"
          d="m 99.415876,125.60081 c -1.3284,7.38329 -7.56538,14.98619 -15.09179,14.98619 -8.49323,0 -15.37839,-7.11825 -15.37839,-15.89907 0,-8.78081 6.88516,-15.89919 15.37839,-15.89919 8.49319,0 15.37828,7.11838 15.53034,15.83184 l 56.979364,-0.0538 67.07787,0.0132 10.25224,-47.697339 16.34489,67.824849 9.18079,-20.12751 78.9085,0 8.34046,-47.697339 15.37836,68.896279 10.2522,-21.19894 87.42604,0.0757 C 460.12589,85.845941 449.12446,55.438091 427.42373,33.532541 405.72229,11.626901 375.73449,0.67423451 337.46027,0.67423451 c -10.5939,0 -21.40152,1.89915799 -32.42264,5.69724199 -11.02118,3.7979875 -21.27344,8.9212245 -30.75677,15.3691745 -9.48326,6.44784 -17.64226,12.49861 -24.47716,18.15154 -6.83493,5.65293 -13.32791,11.65939 -19.47928,18.01904 -6.15132,-6.35965 -12.64432,-12.36611 -19.47924,-18.01904 -6.83492,-5.65293 -14.99391,-11.7037 -24.47722,-18.15154 -9.48333,-6.44795 -19.73557,-11.571075 -30.75672,-15.3691745 -11.02117,-3.798084 -21.82882,-5.69724199 -32.42272,-5.69724199 -38.274194,0 -68.262764,10.95266649 -89.963424,32.85830649 -21.70065,21.90632 -32.55086149,52.2896 -32.55086149,91.155009 0,11.83699 2.00765299,24.02626 6.02319099,36.5681 4.0155505,12.54172 8.5862405,23.23123 13.7123705,32.06327 5.12613,8.83193 10.9366,17.44395 17.42883,25.83614 6.49297,8.3912 11.23466,14.17662 14.22497,17.35651 2.99032,3.17978 5.3397,5.47635 7.04843,6.88967 L 219.04697,402.92255 c 3.07567,3.17977 6.83491,4.76972 11.27745,4.76972 4.44256,0 8.2018,-1.58995 11.27747,-4.76972 L 401.28049,243.9311 c 38.65101,-39.96781 58.25774,-80.62899 58.71915,-119.21886"
          stroke="gray"
          stroke-width="0.25"
          fill="none"/>
    <path id="path5274"
        class="main-path"
        d="m 99.415876,125.60081 c -1.3284,7.38329 -7.56538,14.98619 -15.09179,14.98619 -8.49323,0 -15.37839,-7.11825 -15.37839,-15.89907 0,-8.78081 6.88516,-15.89919 15.37839,-15.89919 8.49319,0 15.37828,7.11838 15.53034,15.83184 l 56.979364,-0.0538 67.07787,0.0132 10.25224,-47.697339 16.34489,67.824849 9.18079,-20.12751 78.9085,0 8.34046,-47.697339 15.37836,68.896279 10.2522,-21.19894 87.42604,0.0757 C 460.12589,85.845941 449.12446,55.438091 427.42373,33.532541 405.72229,11.626901 375.73449,0.67423451 337.46027,0.67423451 c -10.5939,0 -21.40152,1.89915799 -32.42264,5.69724199 -11.02118,3.7979875 -21.27344,8.9212245 -30.75677,15.3691745 -9.48326,6.44784 -17.64226,12.49861 -24.47716,18.15154 -6.83493,5.65293 -13.32791,11.65939 -19.47928,18.01904 -6.15132,-6.35965 -12.64432,-12.36611 -19.47924,-18.01904 -6.83492,-5.65293 -14.99391,-11.7037 -24.47722,-18.15154 -9.48333,-6.44795 -19.73557,-11.571075 -30.75672,-15.3691745 -11.02117,-3.798084 -21.82882,-5.69724199 -32.42272,-5.69724199 -38.274194,0 -68.262764,10.95266649 -89.963424,32.85830649 -21.70065,21.90632 -32.55086149,52.2896 -32.55086149,91.155009 0,11.83699 2.00765299,24.02626 6.02319099,36.5681 4.0155505,12.54172 8.5862405,23.23123 13.7123705,32.06327 5.12613,8.83193 10.9366,17.44395 17.42883,25.83614 6.49297,8.3912 11.23466,14.17662 14.22497,17.35651 2.99032,3.17978 5.3397,5.47635 7.04843,6.88967 L 219.04697,402.92255 c 3.07567,3.17977 6.83491,4.76972 11.27745,4.76972 4.44256,0 8.2018,-1.58995 11.27747,-4.76972 L 401.28049,243.9311 c 38.65101,-39.96781 58.25774,-80.62899 58.71915,-119.21886"
        stroke="red"
        stroke-width="2.0"
        stroke-dasharray="0 99999"
        fill="none"/>
    <script id="script4260" type="text/javascript"><![CDATA[
        var mainInterval = null

        document.addEventListener("DOMContentLoaded", function(event) {
            document.getElementById("svg4724").addEventListener("click", function () {
                window.clearInterval(mainInterval)
                resetLines("main-path")
                drawRedLine()
            });
            //drawRedLine()
        });

        function resetLines(className) {
            var paths = document.getElementsByClassName(className)
            for (var i=0, len = paths.length; i<len; ++i) {
                paths[i].setAttribute("stroke-dasharray", "0 99999")
            }
        }

        function drawRedLine() {
            mainInterval = drawPath("main-path", 3.5, 15, function() {
            })
        }

        function drawPath(className, increment, timing, callback) {
            var facePaths = document.getElementsByClassName(className)
            var facePathsLength = []
            var facePathsCurrentLength = []
            var maxLength = 0
            for (var i=0, len=facePaths.length; i<len; ++i) {
                facePathsCurrentLength[i] = 0.0
                facePathsLength[i] = facePaths[i].getTotalLength()
                if (facePathsLength[i] > maxLength) {
                    maxLength = facePathsLength[i]
                }
            }
            var shiftInterval = setInterval(function () {
                for (var i=0, len=facePaths.length; i<len; ++i) {
                    facePathsCurrentLength[i] += (increment * (facePathsLength[i] / maxLength))
                    facePaths[i].setAttribute("stroke-dasharray", facePathsCurrentLength[i] + " " + (facePathsLength[i] - facePathsCurrentLength[i]))
                }
                if (facePathsCurrentLength[0] >= facePathsLength[0]) {
                    window.clearInterval(shiftInterval)
                    if (callback != null) {
                        callback()
                    }
                }
            }, timing)
            return shiftInterval
        }
    ]]></script>
</svg>
