<?xml version="1.0" encoding="UTF-8" standalone="no"?>
<svg id="svg2" xmlns:rdf="http://www.w3.org/1999/02/22-rdf-syntax-ns#" xmlns="http://www.w3.org/2000/svg" height="56.444mm" viewBox="0 0 311.00159 200.00076" width="87.771mm" version="1.1" xmlns:cc="http://creativecommons.org/ns#" xmlns:dc="http://purl.org/dc/elements/1.1/">
 <g id="g6115" transform="translate(25.5 -225.35)">
  <g id="g4774" transform="translate(-40.001 200)">
   <circle id="circle4766" cy="125.35" cx="225" r="75"/>
   <g id="g6175" transform="matrix(.99998 0 0 1.0001 -34.844 -417.26)">
    <circle id="circle6177" cy="542.56" cx="259.85" r="20" fill="#fff"/>
    <path id="path6179" d="m261.03 517.59a25 25 0 0 0 -13.68 3.32 25 25 0 0 0 -8.85 8.64 25 25 0 0 0 -0.3 25.51 25 25 0 0 0 20.47 12.47 25 25 0 0 0 13.68 -3.32 25 25 0 0 0 8.85 -8.64 25 25 0 0 0 0.3 -25.51 25 25 0 0 0 -20.47 -12.47zm-3.03 8.59v3.18h4v-3.13a16.5 16.5 0 0 1 11.11 6.54l-2.75 1.59 2 3.46 0.86-0.5 1.86-1.07a16.5 16.5 0 0 1 -0.12 12.9l-2.75-1.59-2 3.46 2.71 1.57a16.5 16.5 0 0 1 -4.82 4.26 16.5 16.5 0 0 1 -6.4 2.1v-3.19h-4v3.14a16.5 16.5 0 0 1 -11.12 -6.54l2.76-1.6-2-3.46-2.72 1.57a16.5 16.5 0 0 1 0.12 -12.9l2.75 1.59 2-3.46-2.71-1.57a16.5 16.5 0 0 1 4.82 -4.26 16.5 16.5 0 0 1 6.4 -2.09z" fill="#d83737"/>
   </g>
  </g>
  <g id="g4768" transform="translate(0 200)">
   <circle id="path4764" cy="125.35" cx="75" r="25"/>
   <g id="g6171" transform="matrix(.99998 0 0 1.0001 -184.61 -417.26)">
    <circle id="path6169" cy="542.56" cx="259.85" r="20" fill="#fff"/>
    <path id="path6117" d="m260.8 517.59a25 25 0 0 0 -13.68 3.32 25 25 0 0 0 -8.85 8.64 25 25 0 0 0 -0.3 25.51 25 25 0 0 0 20.47 12.47 25 25 0 0 0 13.68 -3.32 25 25 0 0 0 8.85 -8.64 25 25 0 0 0 0.3 -25.51 25 25 0 0 0 -20.47 -12.47zm-3.03 8.59v3.18h4v-3.13a16.5 16.5 0 0 1 11.11 6.54l-2.75 1.59 2 3.46 0.86-0.5 1.86-1.07a16.5 16.5 0 0 1 -0.11 12.9l-2.76-1.59-2 3.46 2.71 1.57a16.5 16.5 0 0 1 -4.82 4.26 16.5 16.5 0 0 1 -6.4 2.1v-3.19h-4v3.14a16.5 16.5 0 0 1 -11.12 -6.54l2.77-1.6-2-3.46-2.73 1.57a16.5 16.5 0 0 1 0.12 -12.9l2.76 1.59 2-3.46-2.72-1.57a16.5 16.5 0 0 1 4.82 -4.26 16.5 16.5 0 0 1 6.4 -2.09z" fill="#d83737"/>
   </g>
  </g>
 </g>
 <path id="rect5980" fill="#c8c8c8" d="m6-0.0001297c-1.662 0-3 1.338-3 3v122l-3 3v49l3 3v17c0 1.66 1.338 3 3 3h299c1.66 0 3-1.34 3-3v-17l3-3v-49l-3-3v-122c0-1.6621-1.34-3.0001-3-3.0001l-299-0.0000297zm94.5 75h110c13.85 0 25 11.15 25 25s-11.15 25-25 25h-110c-13.849 0-25-11.15-25-25s11.151-25 25-25z"/>
 <path id="rect5759" opacity=".951" fill="#fff" d="m26 19c-1.662 0-3 1.338-3 3v119c0 1.66 1.338 3 3 3h259c1.66 0 3-1.34 3-3v-119c0-1.662-1.34-3-3-3h-259zm74.5 56h110c13.85 0 25 11.15 25 25s-11.15 25-25 25h-110c-13.849 0-25-11.15-25-25s11.151-25 25-25z"/>
 <g id="g5789" transform="translate(-1.3853 -239.93)">
  <path id="path5206" d="m49.656 439.73 15-50h185l15 50z" fill-rule="evenodd" stroke="#000" stroke-width=".4" fill="#a8a8a8"/>
  <g id="g5267" transform="translate(-130.34 -27.626)">
   <g id="g4290">
    <circle id="path4157" cy="451.38" cx="215.48" r="6.7424"/>
    <circle id="circle4159" cy="447.59" cx="245.03" r="6.7424"/>
    <circle id="circle4161" cy="447.34" cx="328.11" r="6.7424"/>
    <circle id="circle4163" cy="451.63" cx="357.91" r="6.7424"/>
    <circle id="circle4165" cy="430.92" cx="286.7" r="6.7424"/>
   </g>
   <path id="path4181" stroke="#fff" stroke-width="1px" fill="none" d="m284.09 428.47 5 5"/>
   <path id="path4183" stroke="#fff" stroke-width="1px" fill="none" d="m289.09 428.47-5 5"/>
   <circle id="circle5141" cy="453.42" cx="427.05" r="6.7424"/>
   <path id="path5143" stroke="#fff" stroke-width="1px" fill="none" d="m424.45 450.97 5 5"/>
   <path id="path5145" stroke="#fff" stroke-width="1px" fill="none" d="m429.45 450.97-5 5"/>
   <circle id="circle5147" cy="279.85" cx="426.34" r="6.7424"/>
   <path id="path5149" stroke="#fff" stroke-width="1px" fill="none" d="m423.73 277.4 5 5"/>
   <path id="path5151" stroke="#fff" stroke-width="1px" fill="none" d="m428.73 277.4-5 5"/>
   <circle id="circle5153" cy="279.49" cx="147.41" r="6.7424"/>
   <path id="path5155" stroke="#fff" stroke-width="1px" fill="none" d="m144.81 277.04 5 5"/>
   <path id="path5157" stroke="#fff" stroke-width="1px" fill="none" d="m149.81 277.04-5 5"/>
   <circle id="circle5159" cy="453.42" cx="148.48" r="6.7424"/>
   <path id="path5161" stroke="#fff" stroke-width="1px" fill="none" d="m145.88 450.97 5 5"/>
   <path id="path5163" stroke="#fff" stroke-width="1px" fill="none" d="m150.88 450.97-5 5"/>
  </g>
 </g>
 <g id="g5565" transform="translate(-132.14 -264.82)">
  <g id="g4314" stroke="#000" stroke-width="1px" fill="none">
   <path id="path4189" d="m410 305.36-225-1"/>
   <path id="path4191" d="m185 313.36h225"/>
   <path id="path4193" d="m410 322.36h-225"/>
   <path id="path4187" d="m185 295.36h225"/>
  </g>
  <g id="g5560" transform="translate(-25,59)">
   <path id="path4195" stroke-width="1px" stroke="#000" fill-rule="evenodd" d="m186.75 235.86h18v17h-18v-17"/>
   <g id="text4197" transform="matrix(1.004 0 0 .99606 23.75 -59.5)" fill="#fff">
    <path id="path4208" d="m171.27 301.07-1.96 5.29h3.92l-1.96-5.29zm-0.82-1.42h1.64l4.05 10.64h-1.5l-0.97-2.73h-4.79l-0.97 2.73h-1.52l4.06-10.64z" fill="#fff"/>
   </g>
  </g>
 </g>
 <g id="g6742" transform="translate(0 -6)">
  <g id="g5221" font-size="40px" font-family="sans-serif" transform="translate(-130.02 -259.53)">
   <g id="text5083">
    <path id="path4231" d="m165.64 352.9h-0.47l-1.79-2.74v2.74h-0.47v-3.56h0.47l1.8 2.75v-2.75h0.46v3.56z"/>
    <path id="path4233" d="m166.29 351.55q0-0.39 0.15-0.7t0.42-0.47q0.28-0.17 0.63-0.17 0.53 0 0.87 0.37 0.33 0.37 0.33 0.99v0.04q0 0.38-0.15 0.69-0.14 0.3-0.42 0.48-0.27 0.17-0.63 0.17-0.54 0-0.87-0.38-0.33-0.37-0.33-0.99v-0.03zm0.45 0.06q0 0.44 0.2 0.7 0.21 0.27 0.55 0.27t0.55-0.27q0.2-0.27 0.2-0.76 0-0.43-0.21-0.7-0.2-0.27-0.54-0.27t-0.54 0.26q-0.21 0.27-0.21 0.77z"/>
    <path id="path4235" d="m170.53 350.66q-0.1-0.02-0.22-0.02-0.44 0-0.6 0.38v1.88h-0.45v-2.64h0.44v0.3q0.23-0.35 0.63-0.35 0.14 0 0.2 0.03v0.42z"/>
    <path id="path4238" d="m171.37 350.26 0.01 0.29q0.29-0.34 0.79-0.34 0.55 0 0.75 0.42 0.13-0.19 0.34-0.31 0.22-0.11 0.5-0.11 0.87 0 0.89 0.92v1.77h-0.45v-1.75q0-0.28-0.13-0.42t-0.44-0.14q-0.25 0-0.41 0.15-0.17 0.15-0.2 0.4v1.76h-0.45v-1.73q0-0.58-0.57-0.58-0.44 0-0.6 0.38v1.93h-0.46v-2.64h0.43z"/>
    <path id="path4240" d="m176.96 352.9q-0.04-0.08-0.06-0.28-0.32 0.33-0.75 0.33-0.39 0-0.64-0.22-0.25-0.23-0.25-0.56 0-0.42 0.31-0.64 0.31-0.23 0.88-0.23h0.44v-0.21q0-0.24-0.14-0.38t-0.42-0.14q-0.24 0-0.4 0.12-0.17 0.13-0.17 0.3h-0.45q0-0.2 0.14-0.38 0.14-0.19 0.38-0.3 0.24-0.1 0.53-0.1 0.46 0 0.72 0.23 0.25 0.22 0.26 0.62v1.22q0 0.36 0.1 0.58v0.04h-0.48zm-0.75-0.35q0.22 0 0.41-0.11t0.27-0.28v-0.54h-0.35q-0.83 0-0.83 0.48 0 0.21 0.14 0.33t0.36 0.12z"/>
    <path id="path4242" d="m178.55 352.9h-0.45v-3.75h0.45v3.75z"/>
    <path id="path4244" d="m180.58 352.9v-3.56h1.16q0.58 0 0.87 0.24t0.29 0.71q0 0.25-0.14 0.44t-0.38 0.3q0.28 0.08 0.45 0.31 0.17 0.22 0.17 0.53 0 0.48-0.31 0.75-0.31 0.28-0.88 0.28h-1.23zm0.47-1.66v1.27h0.77q0.33 0 0.52-0.16 0.19-0.17 0.19-0.47 0-0.64-0.7-0.64h-0.78zm0-0.38h0.71q0.3 0 0.49-0.15 0.18-0.16 0.18-0.42 0-0.29-0.17-0.43-0.17-0.13-0.52-0.13h-0.69v1.13z"/>
    <path id="path4246" d="m185.25 352.9q-0.04-0.08-0.06-0.28-0.31 0.33-0.75 0.33-0.39 0-0.64-0.22-0.25-0.23-0.25-0.56 0-0.42 0.31-0.64 0.31-0.23 0.88-0.23h0.44v-0.21q0-0.24-0.14-0.38t-0.42-0.14q-0.24 0-0.4 0.12-0.16 0.13-0.16 0.3h-0.46q0-0.2 0.14-0.38 0.14-0.19 0.38-0.3 0.24-0.1 0.53-0.1 0.46 0 0.72 0.23 0.25 0.22 0.26 0.62v1.22q0 0.36 0.1 0.58v0.04h-0.48zm-0.75-0.35q0.22 0 0.41-0.11t0.27-0.28v-0.54h-0.35q-0.83 0-0.83 0.48 0 0.21 0.14 0.33t0.36 0.12z"/>
    <path id="path4248" d="m187.89 352.2q0-0.19-0.14-0.29t-0.48-0.17q-0.35-0.07-0.55-0.18-0.2-0.1-0.3-0.24-0.09-0.14-0.09-0.34 0-0.32 0.27-0.55 0.28-0.22 0.7-0.22 0.45 0 0.73 0.23t0.28 0.59h-0.45q0-0.18-0.16-0.32-0.16-0.13-0.4-0.13t-0.38 0.11q-0.14 0.1-0.14 0.28 0 0.16 0.13 0.24 0.13 0.09 0.47 0.16 0.33 0.08 0.54 0.18 0.21 0.11 0.31 0.26 0.11 0.14 0.11 0.36 0 0.35-0.29 0.56-0.28 0.22-0.73 0.22-0.32 0-0.56-0.12-0.25-0.11-0.39-0.31-0.13-0.2-0.13-0.44h0.45q0.01 0.23 0.18 0.37 0.17 0.13 0.45 0.13 0.26 0 0.41-0.1 0.16-0.11 0.16-0.28z"/>
    <path id="path4250" d="m190.46 352.2q0-0.19-0.14-0.29-0.13-0.1-0.48-0.17-0.34-0.07-0.54-0.18-0.2-0.1-0.3-0.24-0.09-0.14-0.09-0.34 0-0.32 0.27-0.55 0.28-0.22 0.7-0.22 0.45 0 0.73 0.23t0.28 0.59h-0.45q0-0.18-0.16-0.32-0.16-0.13-0.4-0.13t-0.38 0.11q-0.14 0.1-0.14 0.28 0 0.16 0.13 0.24 0.13 0.09 0.46 0.16 0.34 0.08 0.55 0.18 0.21 0.11 0.31 0.26 0.11 0.14 0.11 0.36 0 0.35-0.29 0.56-0.28 0.22-0.73 0.22-0.32 0-0.56-0.12-0.25-0.11-0.39-0.31-0.13-0.2-0.13-0.44h0.45q0.01 0.23 0.18 0.37 0.17 0.13 0.45 0.13 0.25 0 0.41-0.1 0.15-0.11 0.15-0.28z"/>
   </g>
   <g id="text5087">
    <path id="path4253" d="m164.46 358.26h-0.46v-3.02l-0.91 0.34v-0.41l1.3-0.49h0.07v3.58z"/>
    <path id="path4255" d="m168.12 358.26h-2.33v-0.33l1.23-1.37q0.27-0.31 0.37-0.5 0.11-0.2 0.11-0.4 0-0.28-0.17-0.46t-0.45-0.18q-0.34 0-0.52 0.2-0.19 0.19-0.19 0.53h-0.45q0-0.49 0.31-0.8 0.32-0.3 0.85-0.3 0.5 0 0.78 0.26 0.29 0.26 0.29 0.69 0 0.53-0.67 1.25l-0.95 1.04h1.79v0.37z"/>
    <path id="path4257" d="m170.83 356.74q0 0.79-0.27 1.18-0.27 0.38-0.85 0.38-0.57 0-0.84-0.37-0.28-0.38-0.29-1.13v-0.6q0-0.79 0.28-1.17 0.27-0.38 0.84-0.38 0.58 0 0.85 0.37t0.28 1.13v0.59zm-0.45-0.62q0-0.57-0.16-0.83-0.17-0.27-0.52-0.27-0.34 0-0.5 0.26-0.16 0.27-0.16 0.81v0.72q0 0.58 0.16 0.85 0.17 0.28 0.51 0.28 0.33 0 0.5-0.26 0.16-0.26 0.17-0.82v-0.74z"/>
    <path id="path4259" d="m173.18 355.61v1.55q0.01 0.4 0.13 0.59 0.13 0.19 0.41 0.19 0.49 0 0.64-0.37v-1.96h0.45v2.65h-0.41l-0.02-0.29q-0.22 0.33-0.64 0.33-0.36 0-0.56-0.17v1.14h-0.45v-3.66h0.45z"/>
    <path id="path4261" d="m177.07 357.55q0-0.18-0.14-0.28t-0.48-0.17q-0.34-0.08-0.55-0.18-0.2-0.1-0.29-0.24-0.1-0.15-0.1-0.34 0-0.33 0.27-0.55 0.28-0.23 0.71-0.23 0.45 0 0.72 0.24 0.29 0.23 0.29 0.59h-0.46q0-0.19-0.16-0.32-0.15-0.13-0.39-0.13-0.25 0-0.39 0.1-0.14 0.11-0.14 0.28t0.13 0.25 0.47 0.16q0.34 0.07 0.55 0.18 0.21 0.1 0.31 0.25t0.1 0.36q0 0.36-0.28 0.57-0.29 0.21-0.74 0.21-0.32 0-0.56-0.11t-0.38-0.31-0.14-0.44h0.45q0.01 0.23 0.18 0.36 0.17 0.14 0.45 0.14 0.26 0 0.41-0.11 0.16-0.1 0.16-0.28z"/>
    <path id="path4263" d="m181.43 356.61h-1.54v1.26h1.79v0.39h-2.26v-3.56h2.23v0.39h-1.76v1.14h1.54v0.38z"/>
    <path id="path4265" d="m184.98 356.59q0 0.52-0.17 0.89-0.16 0.37-0.46 0.58l0.64 0.5-0.32 0.3-0.75-0.6q-0.18 0.04-0.37 0.04-0.42 0-0.75-0.2-0.32-0.21-0.5-0.59t-0.19-0.89v-0.25q0-0.51 0.18-0.91 0.18-0.39 0.51-0.6 0.32-0.21 0.74-0.21 0.43 0 0.76 0.21 0.32 0.21 0.5 0.6t0.18 0.91v0.22zm-0.47-0.23q0-0.62-0.25-0.96-0.25-0.35-0.72-0.35-0.44 0-0.7 0.34-0.25 0.34-0.26 0.94v0.26q0 0.61 0.26 0.96 0.25 0.36 0.71 0.36 0.45 0 0.7-0.33 0.25-0.34 0.26-0.95v-0.27z"/>
   </g>
  </g>
  <g id="g5209" transform="translate(-130.02 -259.53)">
   <g id="text5101">
    <path id="path4268" d="m383.14 352.18h-0.47l-1.79-2.74v2.74h-0.47v-3.55h0.47l1.8 2.75v-2.75h0.46v3.55z"/>
    <path id="path4270" d="m383.79 350.84q0-0.39 0.15-0.7t0.42-0.48q0.28-0.17 0.63-0.17 0.53 0 0.87 0.38 0.33 0.37 0.33 0.99v0.03q0 0.39-0.15 0.7-0.14 0.3-0.42 0.47-0.27 0.17-0.63 0.17-0.54 0-0.87-0.37t-0.33-0.99v-0.03zm0.45 0.05q0 0.44 0.2 0.71 0.21 0.26 0.55 0.26t0.55-0.26q0.2-0.28 0.2-0.76 0-0.44-0.21-0.7-0.2-0.28-0.54-0.28t-0.54 0.27q-0.21 0.27-0.21 0.76z"/>
    <path id="path4272" d="m387.25 352.18h-0.45v-2.64h0.45v2.64zm-0.49-3.34q0-0.11 0.07-0.18 0.06-0.08 0.2-0.08 0.13 0 0.2 0.08 0.06 0.07 0.06 0.18t-0.06 0.18q-0.07 0.08-0.2 0.08-0.14 0-0.2-0.08-0.07-0.07-0.07-0.18z"/>
    <path id="path4274" d="m389.51 351.48q0-0.18-0.14-0.28t-0.48-0.18q-0.35-0.07-0.55-0.17t-0.3-0.25q-0.09-0.14-0.09-0.33 0-0.33 0.27-0.55 0.28-0.23 0.71-0.23 0.45 0 0.72 0.24 0.28 0.23 0.28 0.59h-0.45q0-0.19-0.16-0.32-0.15-0.14-0.39-0.14-0.25 0-0.39 0.11t-0.14 0.28 0.13 0.25 0.47 0.16q0.34 0.07 0.55 0.18 0.21 0.1 0.31 0.25t0.1 0.36q0 0.36-0.28 0.57-0.29 0.21-0.74 0.21-0.32 0-0.56-0.11-0.25-0.11-0.38-0.31-0.14-0.2-0.14-0.44h0.45q0.01 0.23 0.18 0.36t0.45 0.13q0.26 0 0.41-0.1 0.16-0.1 0.16-0.28z"/>
    <path id="path4276" d="m391.64 352.23q-0.53 0-0.87-0.35t-0.34-0.94v-0.09q0-0.39 0.15-0.7t0.42-0.48q0.27-0.18 0.59-0.18 0.51 0 0.8 0.34 0.28 0.34 0.28 0.97v0.19h-1.79q0.01 0.39 0.23 0.63t0.56 0.24q0.24 0 0.4-0.09 0.17-0.1 0.29-0.26l0.28 0.21q-0.33 0.51-1 0.51zm-0.05-2.37q-0.28 0-0.46 0.2-0.19 0.2-0.23 0.56h1.32v-0.03q-0.02-0.35-0.18-0.54-0.17-0.19-0.45-0.19z"/>
   </g>
   <g id="text5105">
    <path id="path4279" d="m381.45 356.82h-0.84v1.44h-0.47v-3.56h1.18q0.6 0 0.92 0.27 0.33 0.28 0.33 0.8 0 0.33-0.18 0.58-0.18 0.24-0.5 0.37l0.83 1.51v0.03h-0.5l-0.77-1.44zm-0.84-0.39h0.72q0.35 0 0.56-0.18t0.21-0.48q0-0.33-0.2-0.51-0.2-0.17-0.57-0.17h-0.72v1.34z"/>
    <path id="path4281" d="m384.25 358.3q-0.54 0-0.88-0.35-0.33-0.35-0.33-0.94v-0.09q0-0.39 0.14-0.7 0.16-0.31 0.42-0.48 0.28-0.18 0.59-0.18 0.52 0 0.8 0.34 0.29 0.34 0.29 0.98v0.18h-1.79q0.01 0.39 0.22 0.64 0.22 0.24 0.56 0.24 0.24 0 0.41-0.1 0.16-0.1 0.29-0.26l0.27 0.21q-0.33 0.51-0.99 0.51zm-0.06-2.36q-0.27 0-0.46 0.2-0.18 0.19-0.23 0.55h1.32v-0.03q-0.01-0.35-0.18-0.53-0.17-0.19-0.45-0.19z"/>
    <path id="path4283" d="m385.69 356.91q0-0.61 0.28-0.97 0.29-0.38 0.76-0.38 0.46 0 0.73 0.32v-1.37h0.46v3.75h-0.42l-0.02-0.29q-0.27 0.33-0.76 0.33-0.45 0-0.75-0.37-0.28-0.38-0.28-0.98v-0.04zm0.45 0.05q0 0.45 0.18 0.71 0.19 0.25 0.52 0.25 0.43 0 0.62-0.39v-1.21q-0.2-0.37-0.62-0.37-0.33 0-0.52 0.25-0.18 0.26-0.18 0.76z"/>
    <path id="path4285" d="m390.25 357.99q-0.26 0.31-0.77 0.31-0.43 0-0.65-0.24-0.22-0.25-0.22-0.73v-1.72h0.45v1.71q0 0.6 0.49 0.6 0.52 0 0.69-0.39v-1.92h0.45v2.65h-0.43l-0.01-0.27z"/>
    <path id="path4287" d="m392.43 357.94q0.24 0 0.42-0.15 0.19-0.15 0.2-0.37h0.43q-0.01 0.23-0.15 0.43-0.15 0.21-0.39 0.33t-0.51 0.12q-0.54 0-0.86-0.35-0.31-0.37-0.31-0.99v-0.08q0-0.38 0.14-0.68t0.4-0.47q0.27-0.17 0.63-0.17 0.44 0 0.74 0.27 0.29 0.27 0.31 0.69h-0.43q-0.01-0.25-0.19-0.42-0.17-0.16-0.43-0.16-0.34 0-0.53 0.24-0.19 0.25-0.19 0.72v0.09q0 0.45 0.19 0.7 0.18 0.25 0.53 0.25z"/>
    <path id="path4289" d="m394.6 354.97v0.64h0.5v0.35h-0.5v1.64q0 0.16 0.07 0.24 0.06 0.08 0.22 0.08 0.08 0 0.22-0.03v0.37q-0.18 0.04-0.35 0.04-0.3 0-0.46-0.18-0.15-0.18-0.15-0.52v-1.64h-0.48v-0.35h0.48v-0.64h0.45z"/>
    <path id="path4291" d="m396.11 358.26h-0.45v-2.65h0.45v2.65zm-0.49-3.35q0-0.11 0.07-0.18 0.07-0.08 0.2-0.08t0.2 0.08q0.07 0.07 0.07 0.18t-0.07 0.19q-0.07 0.07-0.2 0.07t-0.2-0.07q-0.07-0.08-0.07-0.19z"/>
    <path id="path4293" d="m396.71 356.91q0-0.39 0.15-0.7 0.16-0.31 0.43-0.48t0.62-0.17q0.54 0 0.87 0.38 0.34 0.37 0.34 0.99v0.03q0 0.39-0.15 0.7-0.15 0.3-0.42 0.47-0.28 0.17-0.63 0.17-0.54 0-0.88-0.37-0.33-0.37-0.33-0.99v-0.03zm0.46 0.05q0 0.44 0.2 0.71t0.55 0.27q0.34 0 0.54-0.27 0.21-0.27 0.21-0.76 0-0.43-0.21-0.7t-0.55-0.27q-0.33 0-0.54 0.26-0.2 0.27-0.2 0.76z"/>
    <path id="path4295" d="m400.11 355.61 0.02 0.34q0.3-0.39 0.79-0.39 0.83 0 0.84 0.95v1.75h-0.45v-1.75q0-0.29-0.13-0.43-0.13-0.13-0.4-0.13-0.22 0-0.39 0.12-0.16 0.11-0.26 0.3v1.89h-0.45v-2.65h0.43z"/>
   </g>
   <path id="path5119" stroke="#000" stroke-width="1px" fill="none" d="m381 361.36h6v6h-6z"/>
   <path id="path5121" stroke="#000" stroke-width="1px" fill="none" d="m381 370.36h6v6h-6v-6z"/>
   <g id="text5123">
    <path id="path4298" d="m390.95 366.84h-0.7v-5.33h0.7v5.33z"/>
    <path id="path4300" d="m396.33 366.84h-0.7l-2.69-4.11v4.11h-0.7v-5.33h0.7l2.69 4.13v-4.13h0.7v5.33z"/>
   </g>
   <g id="text5131">
    <path id="path4303" d="m394.43 373.57q0 0.78-0.27 1.36-0.26 0.59-0.74 0.89-0.49 0.31-1.13 0.31-0.63 0-1.12-0.31-0.48-0.31-0.76-0.88-0.26-0.57-0.27-1.33v-0.38q0-0.77 0.27-1.36 0.26-0.59 0.75-0.9 0.49-0.32 1.12-0.32 0.64 0 1.13 0.32 0.49 0.3 0.75 0.89 0.27 0.59 0.27 1.37v0.34zm-0.7-0.35q0-0.95-0.38-1.45-0.38-0.51-1.07-0.51-0.66 0-1.05 0.51-0.38 0.5-0.39 1.4v0.4q0 0.91 0.38 1.44 0.39 0.53 1.07 0.53t1.05-0.5q0.38-0.5 0.39-1.42v-0.4z"/>
    <path id="path4305" d="m399.24 370.73v3.62q-0.01 0.76-0.48 1.24t-1.27 0.53l-0.19 0.01q-0.88 0-1.4-0.47t-0.52-1.3v-3.63h0.69v3.61q0 0.58 0.32 0.9t0.91 0.32q0.6 0 0.91-0.32 0.32-0.32 0.32-0.9v-3.61h0.71z"/>
    <path id="path4307" d="m404.03 371.31h-1.71v4.75h-0.7v-4.75h-1.71v-0.58h4.12v0.58z"/>
   </g>
  </g>
 </g>
 <g id="g5379" transform="translate(-130.02 -258.78)">
  <g id="g4942" transform="matrix(.45097 0 0 .45097 311.96 386.57)">
   <polygon id="polygon4335" points="11.813 14.245 11.813 2.355 1.497 20.202"/>
   <polygon id="polygon4337" points="17.747 8.312 23.703 2.355 11.813 2.355"/>
   <polygon id="polygon4339" points="23.71 14.245 17.747 8.312 11.813 14.245"/>
   <polygon id="polygon4341" points="23.703 14.245 34.027 20.194 23.703 2.355"/>
   <polygon id="polygon4343" points="34.027 20.194 25.89 22.374 28.07 30.511"/>
   <polygon id="polygon4345" points="23.703 14.245 17.685 24.562 25.89 22.374"/>
   <polygon id="polygon4347" points="17.685 24.562 7.453 30.518 28.07 30.511"/>
   <polygon id="polygon4349" points="9.633 22.382 1.497 20.202 7.453 30.518"/>
   <polygon id="polygon4351" points="17.685 24.562 11.813 14.245 9.633 22.382"/>
   <polygon id="polygon4353" points="66.038 8.403 66.038 2.294 32.805 2.294 32.805 8.403 45.634 8.403 45.634 30.457 53.331 30.457 53.331 8.403"/>
   <path id="path4355" d="m67.993 30.518v-28.224h19.427c8.559 0 13.87 6.838 13.87 13.746 0 7.208-4.951 14.479-13.87 14.479h-19.427zm7.697-6.353h10.202c7.27 0 8.247-6.109 8.247-8.125 0-2.202-1.884-7.637-8.369-7.637h-10.08v15.762z"/>
   <polygon id="polygon4357" points="110.39 15.123 110.39 2.294 102.69 2.294 102.69 30.518 110.39 30.518 110.39 16.145 125.72 30.518 136.78 30.518 120.65 15.673 135.25 2.294 124.99 2.294"/>
   <path id="path4359" d="m141.4 32.231c-2.24 0-4.14-1.721-4.14-4.076 0-2.334 1.9-4.055 4.14-4.055 2.21 0 4.11 1.721 4.11 4.055 0 2.355-1.9 4.076-4.11 4.076zm-3.32-4.076c0 1.958 1.46 3.398 3.32 3.398 1.84 0 3.29-1.441 3.29-3.398 0-1.925-1.45-3.377-3.29-3.377-1.86 0-3.32 1.451-3.32 3.377z"/>
   <path id="path4361" d="m140.54 28.478v2.033h-0.71v-4.689h1.78c1.11 0 1.66 0.409 1.66 1.334 0 0.839-0.53 1.205-1.21 1.291l1.33 2.065h-0.8l-1.23-2.033h-0.82zm0-0.603h0.85c0.6 0 1.14-0.043 1.14-0.764 0-0.581-0.53-0.688-1.02-0.688h-0.97v1.452z"/>
  </g>
  <g id="g5368">
   <g id="text4221" transform="scale(1.0359 .96536)">
    <path id="path4230" d="m195.03 403.17v10.69h2.25q2.84 0 4.16-1.29t1.32-4.07q0-2.76-1.32-4.04-1.32-1.29-4.16-1.29h-2.25zm-1.86-1.53h3.82q4 0 5.87 1.67 1.87 1.65 1.87 5.19 0 3.55-1.88 5.22t-5.86 1.67h-3.82v-13.75z"/>
   </g>
   <g id="text4232" transform="scale(.97859 1.0219)">
    <path id="path4237" d="m219.83 385.32h5.42v1.65h-5.42v-1.65z"/>
   </g>
   <g id="text4246" fill="#6139fb" transform="scale(1.03 .97086)">
    <path id="path4310" d="m226.47 408.9q-0.16 2.12-1.57 3.34t-3.73 1.22q-2.53 0-3.98-1.7-1.45-1.71-1.45-4.68v-0.8q0-1.9 0.67-3.34 0.67-1.45 1.91-2.22 1.25-0.77 2.89-0.77 2.28 0 3.67 1.22 1.39 1.21 1.61 3.42h-2.71q-0.1-1.27-0.72-1.84-0.6-0.58-1.85-0.58-1.35 0-2.03 0.97-0.67 0.97-0.69 3.01v1q0 2.13 0.64 3.11 0.65 0.99 2.04 0.99 1.26 0 1.87-0.57 0.63-0.58 0.72-1.78h2.71z"/>
    <path id="path4312" d="m235.05 399.99v2.15h-0.25q-1.77 0.03-2.86 0.92-1.07 0.9-1.29 2.49 1.05-1.07 2.65-1.07 1.71 0 2.73 1.23 1.01 1.23 1.01 3.23 0 1.29-0.56 2.33-0.55 1.03-1.57 1.61t-2.3 0.58q-2.08 0-3.36-1.44-1.27-1.45-1.27-3.86v-0.94q0-2.14 0.8-3.78 0.81-1.64 2.32-2.54 1.52-0.9 3.52-0.91h0.43zm-2.55 6.59q-0.63 0-1.14 0.33-0.52 0.33-0.76 0.87v0.79q0 1.31 0.51 2.05 0.52 0.74 1.45 0.74 0.84 0 1.35-0.66 0.53-0.67 0.53-1.73 0-1.07-0.53-1.73-0.52-0.66-1.41-0.66z"/>
    <path id="path4314" d="m247.45 407.84q0 2.73-1.13 4.18-1.13 1.44-3.31 1.44-2.15 0-3.29-1.42t-1.16-4.06v-2.42q0-2.76 1.13-4.19 1.15-1.42 3.3-1.42t3.29 1.41 1.17 4.06v2.42zm-2.62-2.65q0-1.64-0.45-2.38-0.44-0.75-1.39-0.75-0.92 0-1.36 0.71t-0.46 2.22v3.19q0 1.61 0.43 2.4 0.44 0.78 1.41 0.78 0.96 0 1.38-0.75 0.43-0.75 0.44-2.3v-3.12z"/>
   </g>
   <g id="text5135">
    <path id="path4317" style="" d="m265.41 391.91v1.39h-0.47v-3.55h1.31q0.58 0 0.91 0.3t0.33 0.79q0 0.51-0.32 0.79t-0.93 0.28h-0.83zm0-0.38h0.84q0.38 0 0.58-0.18 0.2-0.17 0.2-0.51 0-0.32-0.2-0.51t-0.55-0.19h-0.87v1.39z"/>
    <path id="path4319" style="" d="m267.87 391.96q0-0.39 0.15-0.7 0.16-0.31 0.43-0.48t0.62-0.17q0.54 0 0.87 0.38 0.34 0.37 0.34 0.99v0.03q0 0.39-0.15 0.7-0.15 0.3-0.42 0.47-0.28 0.17-0.63 0.17-0.54 0-0.88-0.37-0.33-0.37-0.33-0.99v-0.03zm0.46 0.05q0 0.44 0.2 0.71 0.2 0.26 0.55 0.26 0.34 0 0.54-0.26 0.21-0.28 0.21-0.76 0-0.44-0.21-0.7-0.21-0.28-0.55-0.28-0.33 0-0.54 0.27-0.2 0.27-0.2 0.76z"/>
    <path id="path4321" style="" d="m273.18 392.68 0.51-2.02h0.45l-0.77 2.64h-0.36l-0.65-2-0.62 2h-0.37l-0.76-2.64h0.45l0.52 1.98 0.61-1.98h0.37l0.62 2.02z"/>
    <path id="path4323" style="" d="m275.7 393.35q-0.54 0-0.87-0.35-0.34-0.35-0.34-0.94v-0.09q0-0.39 0.15-0.7t0.42-0.48q0.27-0.18 0.58-0.18 0.52 0 0.8 0.34 0.29 0.34 0.29 0.97v0.19h-1.79q0.01 0.39 0.23 0.63t0.55 0.24q0.24 0 0.41-0.09 0.17-0.1 0.29-0.26l0.28 0.21q-0.34 0.51-1 0.51zm-0.06-2.37q-0.27 0-0.46 0.2-0.18 0.2-0.22 0.56h1.32v-0.03q-0.02-0.35-0.19-0.53-0.16-0.2-0.45-0.2z"/>
    <path id="path4325" style="" d="m278.53 391.07q-0.11-0.02-0.23-0.02-0.44 0-0.6 0.38v1.87h-0.45v-2.64h0.44l0.01 0.31q0.22-0.36 0.63-0.36 0.13 0 0.2 0.04v0.42z"/>
    <path id="path4327" style="" d="m280.04 393.35q-0.54 0-0.88-0.35t-0.34-0.94v-0.09q0-0.39 0.15-0.7 0.16-0.31 0.42-0.48 0.27-0.18 0.59-0.18 0.51 0 0.8 0.34t0.29 0.97v0.19h-1.79q0.01 0.39 0.22 0.63 0.22 0.24 0.56 0.24 0.24 0 0.41-0.09 0.16-0.1 0.29-0.26l0.27 0.21q-0.33 0.51-0.99 0.51zm-0.06-2.37q-0.27 0-0.46 0.2t-0.23 0.56h1.32v-0.03q-0.02-0.35-0.18-0.53-0.17-0.2-0.45-0.2z"/>
    <path id="path4329" style="" d="m281.48 391.96q0-0.61 0.28-0.98 0.29-0.37 0.76-0.37 0.46 0 0.73 0.32v-1.38h0.46v3.75h-0.42l-0.02-0.28q-0.27 0.33-0.76 0.33-0.46 0-0.75-0.37-0.28-0.38-0.28-0.98v-0.04zm0.45 0.05q0 0.45 0.18 0.71 0.19 0.25 0.52 0.25 0.43 0 0.62-0.39v-1.21q-0.2-0.37-0.62-0.37-0.33 0-0.52 0.25-0.18 0.26-0.18 0.76z"/>
    <path id="path4331" style="" d="m265.36 399.55h-0.45v-2.64h0.45v2.64zm-0.49-3.34q0-0.11 0.07-0.18 0.06-0.08 0.2-0.08 0.13 0 0.2 0.08 0.06 0.07 0.06 0.18t-0.06 0.18q-0.07 0.08-0.2 0.08-0.14 0-0.2-0.08-0.07-0.07-0.07-0.18z"/>
    <path id="path4333" style="" d="m266.51 396.91 0.01 0.33q0.3-0.38 0.79-0.38 0.84 0 0.85 0.95v1.74h-0.46v-1.74q0-0.29-0.13-0.43-0.12-0.13-0.4-0.13-0.22 0-0.38 0.11-0.17 0.12-0.26 0.31v1.88h-0.45v-2.64h0.43z"/>
    <path id="path4335" style="" d="m271.64 396h0.47v2.52q0 0.51-0.3 0.79-0.31 0.29-0.82 0.29-0.53 0-0.82-0.27-0.3-0.27-0.3-0.76h0.47q0 0.31 0.16 0.48 0.17 0.17 0.49 0.17 0.29 0 0.47-0.18 0.18-0.19 0.18-0.52v-2.52z"/>
    <path id="path4337" style="" d="m274.48 399.55q-0.04-0.07-0.07-0.27-0.31 0.32-0.75 0.32-0.39 0-0.64-0.22t-0.25-0.56q0-0.41 0.31-0.64 0.32-0.23 0.89-0.23h0.44v-0.21q0-0.23-0.15-0.37-0.14-0.14-0.41-0.14-0.24 0-0.41 0.12-0.16 0.12-0.16 0.29h-0.46q0-0.19 0.14-0.38 0.14-0.18 0.38-0.29 0.25-0.11 0.53-0.11 0.46 0 0.72 0.23t0.27 0.63v1.22q0 0.36 0.09 0.57v0.04h-0.47zm-0.75-0.34q0.21 0 0.4-0.11t0.28-0.29v-0.54h-0.36q-0.83 0-0.83 0.49 0 0.21 0.14 0.33t0.37 0.12z"/>
    <path id="path4339" style="" d="m277.8 398.26q0 0.61-0.27 0.97-0.28 0.37-0.75 0.37-0.48 0-0.76-0.3v1.27h-0.45v-3.66h0.41l0.02 0.3q0.28-0.35 0.77-0.35 0.48 0 0.75 0.36 0.28 0.36 0.28 1v0.04zm-0.45-0.05q0-0.45-0.19-0.7-0.19-0.26-0.52-0.26-0.41 0-0.62 0.36v1.26q0.2 0.36 0.62 0.36 0.33 0 0.52-0.25 0.19-0.26 0.19-0.77z"/>
    <path id="path4341" style="" d="m280 399.55q-0.04-0.07-0.06-0.27-0.31 0.32-0.75 0.32-0.39 0-0.64-0.22t-0.25-0.56q0-0.41 0.31-0.64t0.88-0.23h0.44v-0.21q0-0.23-0.14-0.37t-0.42-0.14q-0.24 0-0.4 0.12t-0.16 0.29h-0.46q0-0.19 0.14-0.38 0.14-0.18 0.38-0.29t0.53-0.11q0.46 0 0.72 0.23t0.26 0.63v1.22q0 0.36 0.1 0.57v0.04h-0.48zm-0.75-0.34q0.22 0 0.41-0.11t0.27-0.29v-0.54h-0.35q-0.83 0-0.83 0.49 0 0.21 0.14 0.33t0.36 0.12z"/>
    <path id="path4343" style="" d="m281.52 396.91 0.02 0.33q0.3-0.38 0.79-0.38 0.84 0 0.85 0.95v1.74h-0.46v-1.74q0-0.29-0.13-0.43-0.13-0.13-0.4-0.13-0.22 0-0.38 0.11-0.17 0.12-0.26 0.31v1.88h-0.45v-2.64h0.42z"/>
   </g>
  </g>
 </g>
 <g id="g6049" transform="translate(-132 -270.36)">
  <rect id="rect6045" height="5" width="265" y="332.36" x="155" fill="#e51d00"/>
  <rect id="rect6047" height="5" width="265" y="337.36" x="155" fill="#373737"/>
 </g>
 <path id="path6534" fill="#a8a8a8" d="m71 72.5c-1.67 0-3 1.34-3 3v49c0 1.66 1.33 3 3 3h169c1.66 0 3-1.34 3-3v-49c0-1.66-1.34-3-3-3h-169zm29.5 10.5c9.39 0 17 7.611 17 17 0 9.39-7.61 17-17 17-9.388 0-17-7.61-17-17 0-9.389 7.612-17 17-17zm20 0h70v34h-70v-34zm90 0a17 17 0 0 1 17 17 17 17 0 0 1 -17 17 17 17 0 0 1 -17 -17 17 17 0 0 1 17 -17z"/>
 <script id="script4260" type="text/ecmascript"><![CDATA[
        var interval = null
        var left = null
        var right = null
        var leftBobbin
        var rightBobbin
        var leftCX, leftCY, rightCX, rightCY
        var leftAngle = 0
        var rightAngle = 0
        var progress = 0
        document.addEventListener("DOMContentLoaded", function(event) {
            left = document.getElementById('path6117')
            right = document.getElementById('path6179')
            leftBobbin = document.getElementById('path4764')
            rightBobbin = document.getElementById('circle4766')
            var leftBBox = left.getBBox()
            leftCX = leftBBox.x + (leftBBox.width/2)
            leftCY = leftBBox.y + (leftBBox.height/2)
            var rightBBox = right.getBBox()
            rightCX = rightBBox.x + (rightBBox.width/2)
            rightCY = rightBBox.y + (rightBBox.height/2)
            document.getElementById("svg2").addEventListener("click", function () {
                if (interval == null) {
                    interval = setInterval(function () {
                        var multiplier = 0.5 + (progress/(100*2))
                        left.setAttribute("transform", "rotate(" + (leftAngle) + " " + leftCX + " " + leftCY + ")")
                        right.setAttribute("transform", "rotate(" + (rightAngle) + " " + rightCX + " " + rightCY + ")")
                        leftBobbin.setAttribute("r", 25 + (progress / 2))
                        rightBobbin.setAttribute("r", 25 + ((100-progress) / 2))
                        leftAngle += 9/(multiplier*2)
                        rightAngle += 9*multiplier
                        console.log(leftAngle + '\t' + rightAngle)
                        leftAngle %= 360
                        rightAngle %= 360
                        progress += 0.25
                        if (progress >= 100) {
                            progress = 0
                            window.clearInterval(interval)
                            interval = null
                        }
                    }, 50)
                } else {
                    window.clearInterval(interval)
                    interval = null
                }
            })
        })
    ]]></script>
</svg>
