<?xml version="1.0" encoding="UTF-8" standalone="no"?>
<svg id="svg4154" 
     xmlns:rdf="http://www.w3.org/1999/02/22-rdf-syntax-ns#" 
     xmlns="http://www.w3.org/2000/svg" 
     height="336" 
     width="665" 
     version="1.1" 
     xmlns:cc="http://creativecommons.org/ns#" 
     xmlns:dc="http://purl.org/dc/elements/1.1/">
    <defs id="defs4156">
        <clipPath id="clipPath4769" 
                  clipPathUnits="userSpaceOnUse">
            <path id="path4771" 
                  d="m 0 336 v 336 h665 v-336 z" 
                  fill-opacity=".5" 
                  fill-rule="evenodd"/>
        </clipPath>
    </defs>
    <g id="layer1g"
       fill="none"
       stroke="gray"
       stroke-width="0.5">
        <path id="path4263g" 
              d="m 315.19869,0.03625361 c -50.743,0.18294 -116.01,8.32209999 -201.61,60.92600039 l -3.1224,1.9596 C 60.939288,93.829854 26.710288,131.94585 8.8262882,176.25185 c -5.6197,13.936 -13.169,45.382 -5.7044,74.985 3.2356,12.942 9.2523998,25.911 17.3699998,37.551 18.278,26.282 48.989,43.737 82.054002,46.689 46.689,4.1722 82.052,-16.803 94.626,-56.056 8.6566,-27.108 0.001,-66.839 -33.149,-87.133 -26.935,-16.519 -55.97,-12.743 -72.773002,-1.645 -14.589,9.6784 -22.879,24.719 -22.708,41.237 0.34059,29.262 25.575,44.844 43.683002,44.873 5.3075,0 10.585,-0.91036 16.546,-2.8659 2.1287,-0.65281 4.1448,-1.4204 6.3303,-2.8112 l 0.68057,-0.42408 0.45485,-0.25648 -0.17101,0.0615 c 4.1438,-2.7815 6.6415,-7.3537 6.6415,-12.264 0,-1.3595 -0.19873,-2.7239 -0.5677,-4.0834 -2.1287,-7.4078 -9.4521,-11.893 -17.059,-10.503 l -1.0226,0.19836 -1.3885,0.48562 -2.0178,0.64979 c -4.1722,1.0502 -7.3224,1.1354 -7.9753,1.1354 -2.1287,-0.14481 -12.599,-3.2676 -12.599,-14.706 l 0,-0.14358 c 0.0284,-4.1978 1.7309,-7.1491 2.6675,-8.7413 3.2072,-5.1088 12.118,-10.104 24.124,-9.0252 15.781,1.3311 27.133,9.4226 34.654,24.661 7.0104,14.191 5.1678,31.617 -4.7092,44.418 -9.7919,12.687 -27.248,18.055 -50.464,15.526 -23.416002,-2.5828 -43.198002,-16.033 -54.267002,-37.01 -10.87,-20.492 -11.468,-44.815 -1.5629,-63.491 23.699,-44.731 68.461002,-44.249 93.012002,-40.02 36.33,6.2725 69.309,35.363 83.983,74.048 2.3274,6.159 3.5462,11.071 4.5964,15.499 l 1.5629,6.6962 41.039,20.068 0.5677,0.3967 0.99519,-0.11276 0.16757,-1.1628 c -0.25545,-0.93663 -0.84856,-1.7881 -1.7852,-13.283 -0.79471,-10.161 -2.384,-38.064 11.665,-51.914 5.421,-5.3927 13.765,-10.186 20.321,-11.747 26.907,-6.5563 61.817,-2.0159 91.647,32.469 15.383,17.827 22.959,25.973 26.734,29.603 l 1.279,1.2243 1.5903,1.132 c 1.2233,0.68117 51.261,23.727 51.261,23.727 l 1.0191,-0.25649 0.0308,-1.1081 c -0.3122,-0.36614 -31.708,-40.896 -26.145,-74.274 4.4021,-26.623 25.578,-24.241 54.866,-20.892 9.5649,1.0785 20.463,2.33 31.733,2.5855 31.448,0.19868 65.306,-5.5631 86.196,-14.702 13.51,-5.9036 22.141,-9.8229 27.53,-14.733 1.9584,-1.5894 2.9824,-4.2259 4.0013,-7.0074 l 0.73871,-1.8741 c 0.87986,-2.2706 2.1585,-7.0696 2.6949,-9.7092 0.25544,-1.1353 0.37123,-2.4125 -0.42064,-3.0369 l -2.9001,0.54035 c -9.1675,5.5062 -32.07,15.98 -53.518,16.405 -26.594,0.53928 -80.181,-26.766 -85.775,-29.661 l -0.51299,-0.62243 c -1.3624,-3.2072 -9.3919,-22.225 -11.098,-26.226996 38.572,25.401996 70.559,39.452996 95.053,41.609996 27.247,2.4409 48.506,-12.431 57.588,-18.789 1.7881,-1.1921 3.1224,-2.185 3.6901,-2.3837 l 0.56771,-0.96442 c -1.5043,-9.5649 -15.751,-55.914996 -26.508,-67.040996 -2.983,-3.0653 -5.3692,-6.0159 -10.191,-8.8542 -38.99,-22.723 -131.48,-36.4620004 -135.8,-37.0580004 l -0.7353,0.20178 -0.28385,0.64978 c 0,0 -0.36896,19.1880004 -0.40013,21.3160004 -9.48,-3.15 -78.13,-25.3460004 -142.51,-27.58800039 -10.23,-0.357 -21.17,-0.737 -32.88,-0.695 z m 278.2,45.26300039 c 0.65566,-0.009 1.3134,-0.003 1.9733,0.0205 10.245,0.35971 19.451,4.6026 26.262,11.258 -0.94384,-0.12957 -1.9035,-0.21245 -2.8762,-0.24623 -7.5213,-0.28382 -14.672,2.3866 -20.15,7.5238 -5.4807,5.1088 -8.6887,12.061 -8.9157,19.582 -0.50804,15.525 11.64,28.579996 27.137,29.147996 1.9882,0.0598 3.9446,-0.0941 5.8549,-0.42749 -0.53553,0.56145 -1.0833,1.1143 -1.6553,1.6484 -7.72,7.2375 -17.767,10.984 -28.382,10.615 -21.795,-0.79471 -38.879,-19.159 -38.17,-40.956996 0.36897,-10.558 4.7959,-20.349 12.544,-27.558 7.2349,-6.7586 16.543,-10.475 26.378,-10.609 z m 29.959,25.14 c 3.181,0 6.0534,0.81663 8.2591,2.1238 1.1489,3.4846 1.8156,7.1747 1.9459,10.992 -2.2606,2.1361 -5.9844,3.5465 -10.205,3.5465 -6.8969,0 -12.459,-3.7477 -12.459,-8.3173 0,-4.6263 5.5647,-8.3446 12.459,-8.3446 z"/>
    </g>
    <g id="layer1" 
       clip-path="url(#clipPath4769)"
       fill="#00c859">
        <path id="path4263" 
              d="m 315.19869,0.03625361 c -50.743,0.18294 -116.01,8.32209999 -201.61,60.92600039 l -3.1224,1.9596 C 60.939288,93.829854 26.710288,131.94585 8.8262882,176.25185 c -5.6197,13.936 -13.169,45.382 -5.7044,74.985 3.2356,12.942 9.2523998,25.911 17.3699998,37.551 18.278,26.282 48.989,43.737 82.054002,46.689 46.689,4.1722 82.052,-16.803 94.626,-56.056 8.6566,-27.108 0.001,-66.839 -33.149,-87.133 -26.935,-16.519 -55.97,-12.743 -72.773002,-1.645 -14.589,9.6784 -22.879,24.719 -22.708,41.237 0.34059,29.262 25.575,44.844 43.683002,44.873 5.3075,0 10.585,-0.91036 16.546,-2.8659 2.1287,-0.65281 4.1448,-1.4204 6.3303,-2.8112 l 0.68057,-0.42408 0.45485,-0.25648 -0.17101,0.0615 c 4.1438,-2.7815 6.6415,-7.3537 6.6415,-12.264 0,-1.3595 -0.19873,-2.7239 -0.5677,-4.0834 -2.1287,-7.4078 -9.4521,-11.893 -17.059,-10.503 l -1.0226,0.19836 -1.3885,0.48562 -2.0178,0.64979 c -4.1722,1.0502 -7.3224,1.1354 -7.9753,1.1354 -2.1287,-0.14481 -12.599,-3.2676 -12.599,-14.706 l 0,-0.14358 c 0.0284,-4.1978 1.7309,-7.1491 2.6675,-8.7413 3.2072,-5.1088 12.118,-10.104 24.124,-9.0252 15.781,1.3311 27.133,9.4226 34.654,24.661 7.0104,14.191 5.1678,31.617 -4.7092,44.418 -9.7919,12.687 -27.248,18.055 -50.464,15.526 -23.416002,-2.5828 -43.198002,-16.033 -54.267002,-37.01 -10.87,-20.492 -11.468,-44.815 -1.5629,-63.491 23.699,-44.731 68.461002,-44.249 93.012002,-40.02 36.33,6.2725 69.309,35.363 83.983,74.048 2.3274,6.159 3.5462,11.071 4.5964,15.499 l 1.5629,6.6962 41.039,20.068 0.5677,0.3967 0.99519,-0.11276 0.16757,-1.1628 c -0.25545,-0.93663 -0.84856,-1.7881 -1.7852,-13.283 -0.79471,-10.161 -2.384,-38.064 11.665,-51.914 5.421,-5.3927 13.765,-10.186 20.321,-11.747 26.907,-6.5563 61.817,-2.0159 91.647,32.469 15.383,17.827 22.959,25.973 26.734,29.603 l 1.279,1.2243 1.5903,1.132 c 1.2233,0.68117 51.261,23.727 51.261,23.727 l 1.0191,-0.25649 0.0308,-1.1081 c -0.3122,-0.36614 -31.708,-40.896 -26.145,-74.274 4.4021,-26.623 25.578,-24.241 54.866,-20.892 9.5649,1.0785 20.463,2.33 31.733,2.5855 31.448,0.19868 65.306,-5.5631 86.196,-14.702 13.51,-5.9036 22.141,-9.8229 27.53,-14.733 1.9584,-1.5894 2.9824,-4.2259 4.0013,-7.0074 l 0.73871,-1.8741 c 0.87986,-2.2706 2.1585,-7.0696 2.6949,-9.7092 0.25544,-1.1353 0.37123,-2.4125 -0.42064,-3.0369 l -2.9001,0.54035 c -9.1675,5.5062 -32.07,15.98 -53.518,16.405 -26.594,0.53928 -80.181,-26.766 -85.775,-29.661 l -0.51299,-0.62243 c -1.3624,-3.2072 -9.3919,-22.225 -11.098,-26.226996 38.572,25.401996 70.559,39.452996 95.053,41.609996 27.247,2.4409 48.506,-12.431 57.588,-18.789 1.7881,-1.1921 3.1224,-2.185 3.6901,-2.3837 l 0.56771,-0.96442 c -1.5043,-9.5649 -15.751,-55.914996 -26.508,-67.040996 -2.983,-3.0653 -5.3692,-6.0159 -10.191,-8.8542 -38.99,-22.723 -131.48,-36.4620004 -135.8,-37.0580004 l -0.7353,0.20178 -0.28385,0.64978 c 0,0 -0.36896,19.1880004 -0.40013,21.3160004 -9.48,-3.15 -78.13,-25.3460004 -142.51,-27.58800039 -10.23,-0.357 -21.17,-0.737 -32.88,-0.695 z m 278.2,45.26300039 c 0.65566,-0.009 1.3134,-0.003 1.9733,0.0205 10.245,0.35971 19.451,4.6026 26.262,11.258 -0.94384,-0.12957 -1.9035,-0.21245 -2.8762,-0.24623 -7.5213,-0.28382 -14.672,2.3866 -20.15,7.5238 -5.4807,5.1088 -8.6887,12.061 -8.9157,19.582 -0.50804,15.525 11.64,28.579996 27.137,29.147996 1.9882,0.0598 3.9446,-0.0941 5.8549,-0.42749 -0.53553,0.56145 -1.0833,1.1143 -1.6553,1.6484 -7.72,7.2375 -17.767,10.984 -28.382,10.615 -21.795,-0.79471 -38.879,-19.159 -38.17,-40.956996 0.36897,-10.558 4.7959,-20.349 12.544,-27.558 7.2349,-6.7586 16.543,-10.475 26.378,-10.609 z m 29.959,25.14 c 3.181,0 6.0534,0.81663 8.2591,2.1238 1.1489,3.4846 1.8156,7.1747 1.9459,10.992 -2.2606,2.1361 -5.9844,3.5465 -10.205,3.5465 -6.8969,0 -12.459,-3.7477 -12.459,-8.3173 0,-4.6263 5.5647,-8.3446 12.459,-8.3446 z"/>
    </g>
    <script id="script4265"><![CDATA[
        document.addEventListener("DOMContentLoaded", function(event) { 
            var timing = 15
            var interval = null
        
            var clipPath = document.getElementById("clipPath4769")
            var shift = 0
            var height = document.getElementById("layer1").getBBox().height
            var width = document.getElementById("layer1").getBBox().width
            
            document.getElementById("svg4154").addEventListener("click", function () {
                window.clearInterval(interval)
                clipPath.setAttribute("transform", "translate(0,0)")
                shift = 0 
                
                interval = setInterval(function () {
                    shift -= 1
                    clipPath.setAttribute("transform", "translate(0," + (shift) +")")
                    if (shift <= -1 * height ) {
                        window.clearInterval(interval)
                    }
                }, timing)
            })
            
            function buildClippingPath() {
                var spikesPath = ""
                
                var heightDiff = width / 32
                var widthDiff = width / 32
                var startingHeight = height - heightDiff
                
                //// spikesPath.moveTo(0, startingHeight);
                
                var nextX = widthDiff
                var nextY = startingHeight + heightDiff

                for (var i = 0; i < 32; i++) {
                    //// spikesPath.lineTo(nextX, nextY)
                    nextX += widthDiff
                    nextY += (i % 2 == 0) ? heightDiff : -heightDiff
                }
                //// spikesPath.lineTo(width, 0);
                //// spikesPath.lineTo(0, 0);
                //// spikesPath.close();
            }
        })
    ]]></script>
</svg>
